<svg width="44" height="44" viewBox="0 0 44 44" fill="none" xmlns="http://www.w3.org/2000/svg">
<path d="M8.96737 22C8.97086 18.5446 10.3451 15.2317 12.7884 12.7884C15.2317 10.3451 18.5446 8.97086 22 8.96737C24.2864 8.97209 26.5316 9.57579 28.512 10.7183C30.4924 11.8609 32.1389 13.5024 33.2875 15.4793L29.9886 17.3873L41.0516 11.0008C40.7671 10.4845 40.3558 10.049 39.8566 9.73542L23.6924 0.404382C22.7593 -0.134794 21.2364 -0.134794 20.3055 0.404382L4.1412 9.73542C3.2125 10.2724 2.45105 11.5928 2.45105 12.669V31.331C2.45105 31.8702 2.64031 32.4688 2.94841 32.9992L10.7147 28.5141C9.56701 26.5353 8.9641 24.2876 8.96737 22Z" fill="white"/>
<path d="M27.6427 18.7407C27.0689 17.7519 26.246 16.9308 25.2559 16.3593C24.2658 15.7878 23.1432 15.4859 22 15.4837C20.8572 15.4859 19.7349 15.7884 18.7458 16.3608C17.7566 16.9331 16.9351 17.7554 16.3637 18.7451C15.7923 19.7349 15.4909 20.8574 15.4898 22.0002C15.4887 23.1431 15.7879 24.2662 16.3574 25.2571L22 22L27.6427 18.7407Z" fill="white"/>
<path d="M41.0516 11.0008L29.9468 17.4115L27.6449 18.7429L27.6427 18.7407L22 22L16.3596 25.2571C16.9316 26.247 17.7539 27.0692 18.7438 27.6412C19.7338 28.2133 20.8567 28.515 22 28.5163C23.1438 28.5145 24.2672 28.2125 25.2577 27.6406C26.2483 27.0686 27.0714 26.2467 27.6449 25.2571L33.2853 28.5207C32.1371 30.498 30.4907 32.1397 28.5102 33.2823C26.5297 34.4248 24.2843 35.0284 21.9978 35.0326C19.7103 35.0313 17.4634 34.4283 15.4826 33.2841C13.5017 32.14 11.8567 30.4949 10.7126 28.5141L2.94623 32.9992C3.25433 33.5317 3.67687 33.9961 4.14122 34.2646L20.3055 43.5956C21.2364 44.1348 22.7593 44.1348 23.6924 43.5956L39.8566 34.2646C40.321 33.9961 40.7435 33.5317 41.0516 32.9992C41.3597 32.4688 41.549 31.8702 41.549 31.331V12.669C41.549 12.1298 41.3597 11.5312 41.0516 11.0008ZM35.0327 22.724H33.5846V24.1721H32.1387V22.724H30.6907V21.276H32.1387V19.8279H33.5846V21.276H35.0327V22.724ZM40.464 22.724H39.016V24.1721H37.5679V22.724H36.122V21.276H37.5679V19.8279H39.016V21.276H40.464V22.724Z" fill="white"/>
</svg>
