<svg width="26" height="26" viewBox="0 0 26 26" fill="none" xmlns="http://www.w3.org/2000/svg">
<path d="M25 25L14.7581 8.49919M14.7581 8.49919C15.7039 7.91096 16.3333 6.86233 16.3333 5.66667C16.3333 3.82572 14.8409 2.33333 13 2.33333M14.7581 8.49919C14.2477 8.81664 13.6453 9 13 9C12.3547 9 11.7523 8.81664 11.2419 8.49919M25 14.25C22.0683 17.5716 17.7788 19.6667 13 19.6667C8.22123 19.6667 3.93177 17.5716 1 14.25M1 25L11.2419 8.49919M11.2419 8.49919C10.2962 7.91096 9.66667 6.86233 9.66667 5.66667C9.66667 3.82572 11.1591 2.33333 13 2.33333M13 2.33333V1" stroke="white" stroke-width="2" stroke-linecap="round" stroke-linejoin="round"/>
</svg>
