<svg width="44" height="44" viewBox="0 0 44 44" fill="none" xmlns="http://www.w3.org/2000/svg">
<g clip-path="url(#clip0_18_724)">
<g clip-path="url(#clip1_18_724)">
<path fill-rule="evenodd" clip-rule="evenodd" d="M28.0368 40.6076C26.9764 40.6076 26.1184 39.7453 26.1184 38.6794C26.1184 37.6135 26.9764 36.7533 28.0368 36.7533C29.0972 36.7533 29.9552 37.6135 29.9552 38.6794C29.9552 39.7453 29.0972 40.6076 28.0368 40.6076ZM22.1584 44C33.33 44 32.6326 39.1306 32.6326 39.1306L32.6194 34.086H21.9604V32.5714H36.8522C36.8522 32.5714 44 33.3875 44 22.058C44 10.7285 37.763 11.1278 37.763 11.1278H34.0384V16.3872C34.0384 16.3872 34.2386 22.6563 27.9004 22.6563H17.3272C17.3272 22.6563 11.3872 22.5621 11.3872 28.4292V38.1283C11.3872 38.1283 10.4852 44 22.1584 44ZM15.9654 3.39238C17.0258 3.39238 17.8816 4.25466 17.8816 5.32061C17.8816 6.38655 17.0258 7.24668 15.9654 7.24668C14.905 7.24668 14.047 6.38655 14.047 5.32061C14.047 4.25466 14.905 3.39238 15.9654 3.39238ZM21.8416 0C10.6722 0 11.3696 4.86943 11.3696 4.86943L11.3828 9.91397H22.0418V11.4286H7.14778C7.14778 11.4286 0 10.6125 0 21.942C0 33.2715 6.2392 32.8722 6.2392 32.8722H9.96163V27.6128C9.96163 27.6128 9.7614 21.3437 16.1018 21.3437H26.6728C26.6728 21.3437 32.6128 21.4379 32.6128 15.5708V5.87168C32.6128 5.87168 33.5148 0 21.8416 0Z" fill="white"/>
</g>
</g>
<defs>
<clipPath id="clip0_18_724">
<rect width="44" height="44" fill="white"/>
</clipPath>
<clipPath id="clip1_18_724">
<rect width="44" height="44" fill="white"/>
</clipPath>
</defs>
</svg>
