<svg width="24" height="24" viewBox="0 0 24 24" fill="none" xmlns="http://www.w3.org/2000/svg">
<path fill-rule="evenodd" clip-rule="evenodd" d="M2.97188 8.12935L6.86049 6.75689C6.05763 7.83783 5.3679 8.99872 4.80235 10.2214L2.97188 8.12935ZM0.269941 8.35471L3.87261 12.472L3.35077 13.7766C3.18871 14.1818 3.28369 14.6446 3.59227 14.9532L3.9344 15.2953C2.07648 17.3903 1.05025 19.5813 0.0560137 22.5641C-0.0746563 22.9561 0.0273665 23.3883 0.319544 23.6804C0.611733 23.9726 1.04391 24.0747 1.43591 23.944C4.41861 22.9497 6.60972 21.9235 8.70469 20.0656L9.04681 20.4077C9.35539 20.7163 9.81817 20.8112 10.2234 20.6492L11.528 20.1273L15.6453 23.7301C15.9176 23.9683 16.2902 24.056 16.6402 23.9643C16.9903 23.8725 17.2719 23.6133 17.3924 23.2721L20.6499 14.0424C22.7975 11.5012 24 8.26339 24 4.88811V1.09091C24 0.488421 23.5116 0 22.9091 0H19.1119C15.7366 0 12.4988 1.20245 9.95762 3.35007L0.72786 6.60763C0.38669 6.72805 0.127403 7.00979 0.0356793 7.35976C-0.0560562 7.70975 0.0316974 8.08243 0.269941 8.35471ZM2.92941 21.0705C3.61396 19.4173 4.38221 18.1013 5.48027 16.8412L7.15882 18.5197C5.89871 19.6178 4.58275 20.386 2.92941 21.0705ZM10.0809 18.3563L9.49868 17.774L6.22596 14.5013L5.6437 13.9191L6.41813 11.983C7.12873 10.2065 8.12659 8.5589 9.37179 7.10618L10.0008 6.3723C12.2806 3.71256 15.6087 2.18181 19.1119 2.18181H21.8182V4.88811C21.8182 8.39121 20.2874 11.7194 17.6277 13.9992L16.8938 14.6282C15.4411 15.8734 13.7935 16.8712 12.017 17.5818L10.0809 18.3563ZM15.8707 21.0281L13.7786 19.1977C15.0013 18.6321 16.1622 17.9424 17.2431 17.1395L15.8707 21.0281ZM15.2727 7.63635C15.2727 7.03386 15.7611 6.54544 16.3636 6.54544C16.9662 6.54544 17.4546 7.03386 17.4546 7.63635C17.4546 8.23883 16.9662 8.72726 16.3636 8.72726C15.7611 8.72726 15.2727 8.23883 15.2727 7.63635ZM16.3636 4.36363C14.5561 4.36363 13.0909 5.82888 13.0909 7.63635C13.0909 9.44382 14.5561 10.9091 16.3636 10.9091C18.1712 10.9091 19.6364 9.44382 19.6364 7.63635C19.6364 5.82888 18.1712 4.36363 16.3636 4.36363Z" fill="white"/>
</svg>
