<?xml version="1.0" encoding="UTF-8" standalone="no"?>
<svg
   width="512"
   height="512"
   fill="none"
   version="1.1"
   viewBox="0 0 512 512"
   id="svg1"
   sodipodi:docname="typescript.svg"
   inkscape:version="1.3.2 (091e20e, 2023-11-25, custom)"
   xmlns:inkscape="http://www.inkscape.org/namespaces/inkscape"
   xmlns:sodipodi="http://sodipodi.sourceforge.net/DTD/sodipodi-0.dtd"
   xmlns="http://www.w3.org/2000/svg"
   xmlns:svg="http://www.w3.org/2000/svg"
   xmlns:rdf="http://www.w3.org/1999/02/22-rdf-syntax-ns#"
   xmlns:cc="http://creativecommons.org/ns#"
   xmlns:dc="http://purl.org/dc/elements/1.1/">
  <defs
     id="defs1">
    <inkscape:path-effect
       effect="fill_between_many"
       method="originald"
       linkedpaths="#path1,0,1|#rect1,0,1|"
       id="path-effect3" />
  </defs>
  <sodipodi:namedview
     id="namedview1"
     pagecolor="#838383"
     bordercolor="#000000"
     borderopacity="0"
     inkscape:showpageshadow="2"
     inkscape:pageopacity="0.0"
     inkscape:pagecheckerboard="0"
     inkscape:deskcolor="#d1d1d1"
     inkscape:zoom="0.84082031"
     inkscape:cx="193.8583"
     inkscape:cy="379.98606"
     inkscape:window-width="1278"
     inkscape:window-height="1041"
     inkscape:window-x="-7"
     inkscape:window-y="0"
     inkscape:window-maximized="0"
     inkscape:current-layer="svg1" />
  <title
     id="title1">TypeScript logo</title>
  <metadata
     id="metadata1">
    <rdf:RDF>
      <cc:Work
         rdf:about="">
        <dc:title>TypeScript logo</dc:title>
      </cc:Work>
    </rdf:RDF>
  </metadata>
  <path
     id="rect1"
     style="fill:#ffffff"
     d="M 50 0 C 22.300028 0 0 22.300028 0 50 L 0 462 C 0 489.69997 22.300028 512 50 512 L 462 512 C 489.69997 512 512 489.69997 512 462 L 512 50 C 512 22.300028 489.69997 0 462 0 L 50 0 z M 403.69922 237.43945 C 415.69921 237.43945 425.69923 238.13906 434.69922 239.53906 C 443.69921 240.93906 452.09923 243.13907 459.69922 246.03906 L 459.69922 293.03906 C 456.19922 290.43907 452.09921 288.14062 447.69922 286.14062 C 442.99922 284.14063 438.39921 282.54023 433.69922 281.24023 C 428.99922 279.94024 424.29921 278.96984 419.69922 278.33984 C 415.29922 277.70984 410.89921 277.40039 406.69922 277.40039 C 400.59922 277.40039 395.39921 277.9 390.69922 279 C 385.89922 280.1 381.89922 281.59961 378.69922 283.59961 C 375.49922 285.59961 373.00922 287.89922 371.19922 290.69922 C 369.38922 293.49922 368.5 296.6 368.5 300 C 368.5 303.7 369.5 307 371.5 310 C 373.5 312.9 376.3 315.70039 380 318.40039 C 383.3 321.00039 387.80001 323.59922 393 326.19922 C 398.99999 328.79922 404.40001 331.39961 411 334.09961 C 419.99999 337.89961 428.00001 342.09961 435 346.09961 C 441.99999 350.09961 447.90001 354.79961 453 360.09961 C 458.39999 365.0996 462.3 371.09962 465 378.09961 C 467.7 385.0996 469.09961 392.99962 469.09961 402.09961 C 469.09961 415.0996 466 425.09962 462 434.09961 C 458 443.0996 451.09999 449.79961 443 455.09961 C 435.00001 459.9996 425.99999 463.79961 415 466.09961 C 404.00001 468.39961 392.99999 469.5 381 469.5 C 369.00001 469.5 356.99999 468.50039 346 466.40039 C 335.00001 464.30039 325.09999 461.2 317 457 L 317 408.88867 C 316.37413 408.39186 315.7161 407.95319 315.09961 407.43945 L 317 407 L 317 408.88867 C 325.51112 415.64479 334.8531 420.89975 345.09961 424.43945 C 355.0996 428.23945 366.09962 430.14062 377.09961 430.14062 C 384.0996 430.14063 389.39961 429.53945 394.09961 428.43945 C 398.9996 427.23945 402.89961 425.64062 406.09961 423.64062 C 409.29961 421.64063 411.67922 419.23945 413.19922 416.43945 C 414.71922 413.63946 415.5 410.63945 415.5 407.43945 C 415.5 402.83946 414.19922 398.83945 411.69922 395.43945 C 409.39922 392.03946 405.99921 388.83945 401.69922 385.93945 C 397.69922 383.03946 392.69921 380.23906 386.69922 377.53906 C 380.69922 374.83907 374.59921 372.04023 367.69922 369.24023 C 350.69924 361.24024 337.29921 353.24022 328.69922 342.24023 C 319.99923 332.24024 315.69922 319.24022 315.69922 304.24023 C 315.69922 292.24025 317.99922 282.64023 322.69922 274.24023 C 327.69921 265.24024 333.59923 258.64023 341.69922 253.24023 C 349.69921 247.74024 358.69923 243.74023 369.69922 241.24023 C 380.69921 238.74024 391.69923 237.43945 403.69922 237.43945 z M 118 243 L 297 243 L 297 284 L 233 284 L 233 467 L 182 467 L 182 284 L 118 284 L 118 243 z " />
</svg>
