<svg width="52" height="52" viewBox="0 0 52 52" fill="none" xmlns="http://www.w3.org/2000/svg">
<rect width="52" height="52" rx="15" fill="white"/>
<path d="M28.0391 20.0391C28.0391 16.5391 28.9297 14.0156 30.7109 12.4688C32.5391 10.8906 35.4688 10.1016 39.5 10.1016H40.9297V26.9531C40.9297 34.2188 38.8516 38.875 34.6953 40.9219C33.2422 41.6406 31.5 42 29.4688 42H28.0391V20.0391ZM22.5078 42C18.5859 42 15.6641 40.6328 13.7422 37.8984C11.9609 35.3672 11.0703 31.7188 11.0703 26.9531V10.1016H12.5C16.5312 10.1016 19.4609 10.8906 21.2891 12.4688C23.0703 14.0156 23.9609 16.5391 23.9609 20.0391V42H22.5078Z" fill="#2C6AA3"/>
</svg>
